<?xml version="1.0" encoding="utf-8"?>
<!-- Generator: Adobe Illustrator 22.0.1, SVG Export Plug-In . SVG Version: 6.00 Build 0)  -->
<svg version="1.1" id="Layer_1" xmlns="http://www.w3.org/2000/svg" xmlns:xlink="http://www.w3.org/1999/xlink" x="0px" y="0px"
	 viewBox="0 0 257.2 80" style="enable-background:new 0 0 257.2 80;" xml:space="preserve">
<style type="text/css">
	.st0{fill:#FFB059;}
	.st1{enable-background:new    ;}
	.st2{fill:#1286B2;}
</style>
<g>
	<g>
		<g>
			<path id="a13Znm1z6e" class="st0" d="M250.8,0c3.5,0,6.4,2.8,6.4,6.4c0,14.7,0,52.6,0,67.3c0,3.5-2.9,6.4-6.4,6.4
				c-50.2,0-194.3,0-244.5,0C2.9,80,0,77.2,0,73.6C0,58.9,0,21.1,0,6.4C0,2.8,2.9,0,6.4,0C56.5,0,200.7,0,250.8,0z"/>
		</g>
	</g>
	<g class="st1">
		<path class="st2" d="M46.6,25.7c1,0.7,1.5,1.8,1.5,3.1c0,1.2-0.4,2.3-1.3,3.4c-0.8,1.1-2,2-3.4,2.7c-1.4,0.8-3,1.3-4.7,1.7
			l-0.5-1.1c1.5-0.7,2.6-1.5,3.4-2.5c0.8-1,1.2-2,1.2-3.2c0-0.8-0.2-1.5-0.7-2c-0.5-0.5-1.2-0.8-2-0.8c-1.2,0-2.3,0.3-3.1,1
			c-0.8,0.7-1.5,1.6-1.9,2.7c-0.4,1.1-0.6,2.2-0.6,3.3v12.4c0,0.8-0.1,1.5-0.3,2c-0.2,0.6-0.6,1.1-1.1,1.7l0.2,0.2
			c1.2-0.8,2.5-1.1,3.9-1.1c0.9,0,2,0.1,3.2,0.3c0.2,0,0.6,0.1,1.2,0.2c0.6,0.1,1.2,0.1,1.8,0.1c1,0,1.8-0.2,2.6-0.7
			c0.8-0.5,1.5-1.2,2.1-2l1,0.7L45.8,55c-1.4-0.1-3.2-0.4-5.3-0.8c-1.3-0.2-2.5-0.4-3.4-0.6c-1-0.1-2.1-0.2-3.2-0.2
			c-1.8,0-3.5,0.5-5,1.6l-1.2-1.1c0.6-0.5,1.1-1.1,1.4-1.8s0.4-1.6,0.4-2.7V38.1c0-2.5,0.6-4.8,1.7-6.8s2.7-3.7,4.7-4.9
			c2-1.2,4.3-1.8,6.9-1.8C44.2,24.6,45.5,25,46.6,25.7z"/>
		<path class="st2" d="M61.7,34.6c-1.8,1.3-3.2,2.7-4.2,4.4c-1,1.6-1.5,3.5-1.5,5.7c0,1.2,0.2,2.4,0.7,3.6c0.5,1.2,1.1,2.2,2.1,3.1
			c0.9,0.8,2,1.2,3.2,1.2c1.6,0,2.9-0.6,3.8-1.7c1-1.1,1.5-2.6,1.5-4.3c0-1.3-0.3-2.6-1-3.9c-0.7-1.3-1.6-2.4-2.7-3.4
			c-1.1-0.9-2.3-1.4-3.6-1.5c0.6-0.6,1.2-1.2,1.9-1.7c0.7-0.5,1.5-1.1,2.5-1.9c2,0.7,3.5,1.9,4.7,3.6c1.2,1.8,1.7,3.7,1.7,5.9
			c0,1.9-0.4,3.7-1.3,5.5c-0.8,1.8-2,3.2-3.6,4.3c-1.6,1.1-3.4,1.7-5.5,1.7c-1.7,0-3.3-0.4-4.7-1.2s-2.6-1.9-3.4-3.3
			c-0.8-1.4-1.3-3-1.3-4.7c0-2.9,0.9-5.5,2.8-7.7c1.8-2.2,4.2-3.8,7.2-4.6L61.7,34.6z"/>
		<path class="st2" d="M89,34.8c1.1,0.7,1.9,1.7,2.5,3l-4.3,2.3c-0.3-1.1-0.8-2-1.5-2.7c-0.7-0.6-1.5-1-2.3-1c-1.1,0-2.1,0.3-2.9,1
			c-0.8,0.7-1.5,1.5-1.9,2.6c-0.5,1.1-0.7,2.2-0.7,3.4c0,1.8,0.3,3.4,0.9,4.8c0.6,1.3,1.4,2.4,2.4,3.1c1,0.7,2.1,1,3.4,1
			c2.5,0,4.9-1.4,7.3-4.3l0.9,0.8c-1.4,2-2.8,3.5-4.4,4.6c-1.5,1.1-3.4,1.6-5.5,1.6c-1.7,0-3.3-0.4-4.6-1.2
			c-1.4-0.8-2.4-1.9-3.2-3.4s-1.2-3.2-1.2-5.1c0-2.1,0.5-4,1.4-5.8c0.9-1.8,2.3-3.2,4-4.2c1.8-1,3.8-1.6,6.2-1.6
			C86.7,33.8,87.9,34.2,89,34.8z"/>
		<path class="st2" d="M101.8,45.4h0.3c0.9-3.1,2.1-5.8,3.5-8.2s3.2-3.5,5.4-3.5c1,0,1.8,0.3,2.4,1c0.6,0.7,0.9,1.5,0.9,2.5
			c0,1.7-0.7,3.3-2.1,4.8c-1.4,1.5-3,2.8-4.9,3.9c0.2,0.4,0.5,0.7,0.7,0.9c1.1,1.5,2.1,2.8,3,3.7s1.7,1.4,2.5,1.4
			c1,0,1.9-0.4,2.6-1.3l0.7,0.8c-0.6,1-1.4,1.8-2.5,2.5c-1.1,0.7-2.2,1-3.4,1c-1.2,0-2.2-0.4-3.2-1.2c-0.9-0.8-2-2-3.2-3.4
			c-0.9-1.1-1.5-1.7-1.7-2l-0.4,0.2c-0.2,0.6-0.3,1.4-0.4,2.5c-0.1,1.1-0.2,2.1-0.2,2.9l-4.9,1.1V18.4l4.9-1.7V45.4z M105.1,41.1
			c-1,2.1-1.8,4.1-2.5,6.1c1.8-1.1,3.4-2.3,4.7-3.6c1.3-1.4,1.9-2.7,1.9-4c0-0.4-0.1-0.8-0.3-1.1c-0.2-0.3-0.5-0.5-0.9-0.5
			C107.1,38,106.1,39,105.1,41.1z"/>
		<path class="st2" d="M134.4,24.5V33c0.7-2.7,1.8-4.8,3.2-6.2c1.4-1.4,3-2.1,4.6-2.1c1.4,0,2.5,0.5,3.2,1.4
			c0.7,0.9,1.1,2.1,1.1,3.6v3.5c0.7-2.7,1.7-4.8,3.2-6.3c1.4-1.4,3-2.2,4.6-2.2c1.4,0,2.5,0.5,3.3,1.4c0.8,0.9,1.1,2.1,1.1,3.5v20.8
			c0,0.6,0.1,1,0.4,1.4c0.3,0.4,0.6,0.6,1.1,0.6c0.4,0,0.8-0.1,1.3-0.4c0.4-0.3,0.8-0.6,1.1-1l0.9,0.8c-1.3,2-3,3-5.3,3
			c-1.4,0-2.6-0.5-3.4-1.4c-0.8-0.9-1.2-2.3-1.2-4.1V30.7c0-2.2-0.5-3.3-1.6-3.3c-0.8,0-1.7,0.7-2.5,2c-0.9,1.3-1.6,3-2.1,5
			c-0.6,2-0.8,4-0.8,5.8v13.4l-5.1,1.7V30.7c0-2.2-0.5-3.3-1.5-3.3c-0.8,0-1.7,0.7-2.5,2c-0.9,1.3-1.6,3-2.2,5c-0.6,2-0.9,4-0.9,5.8
			v13.4l-5.1,1.7V26.2L134.4,24.5z"/>
		<path class="st2" d="M180.6,34.9c1.1,0.8,1.6,2,1.6,3.5c0,1.2-0.7,2.6-2,4.1c-1.3,1.5-2.9,2.9-4.7,4.2c-1.8,1.3-3.4,2.2-4.7,2.8
			c1.1,1.8,2.8,2.7,5,2.7c1.2,0,2.5-0.3,3.7-1c1.2-0.7,2.3-1.6,3.2-2.8l0.8,1c-1.4,1.8-2.9,3.2-4.5,4.1c-1.6,1-3.4,1.5-5.6,1.5
			c-1.7,0-3.3-0.4-4.7-1.2c-1.4-0.8-2.5-1.9-3.2-3.3c-0.8-1.4-1.2-2.9-1.2-4.7c0-2.1,0.6-4.1,1.7-6s2.6-3.4,4.5-4.6
			c1.9-1.1,3.9-1.7,6-1.7C178.2,33.7,179.5,34.1,180.6,34.9z M171.5,37.5c-0.8,0.8-1.5,1.7-1.9,2.9c-0.5,1.2-0.7,2.4-0.7,3.6
			c0,1.6,0.4,3,1.1,4.2c1-0.6,2.1-1.4,3.2-2.4c1.1-1,2.1-2.1,2.8-3.3c0.8-1.2,1.1-2.2,1.1-3.2c0-1-0.3-1.7-0.8-2.2s-1.2-0.8-2.1-0.8
			C173.3,36.4,172.3,36.7,171.5,37.5z"/>
		<path class="st2" d="M201.8,53.7l-5.1,1.6V26.1l5.1-1.6V53.7z"/>
		<path class="st2" d="M224.7,34.5c0.4,0.6,0.7,1.2,0.8,2c0.1,0.8,0.2,1.7,0.2,2.9v11.4c0,0.3,0.1,0.6,0.3,0.9s0.5,0.4,0.8,0.4
			c0.4,0,0.8-0.1,1.1-0.4c0.3-0.3,0.6-0.6,1-1l0.7,0.8c-0.5,1-1.2,1.8-2,2.4c-0.9,0.6-1.8,1-2.8,1c-1.3,0-2.3-0.4-3-1.1
			c-0.7-0.8-1-1.8-1-3.2V39.8c0-0.4,0-0.7-0.1-1c-0.1-0.3-0.3-0.4-0.6-0.4c-0.9,0-1.9,1-2.8,3c-1,2-1.8,4.3-2.4,6.8
			c-0.7,2.6-1,4.5-1,5.8l-4.8,1.1V37.9c0-0.4-0.1-0.8-0.3-1c-0.2-0.3-0.5-0.4-0.8-0.4c-0.4,0-0.8,0.2-1.1,0.5
			c-0.4,0.3-0.7,0.7-0.9,1.1l-0.7-0.8c0.4-1,1.1-1.8,1.9-2.5c0.9-0.7,1.8-1,2.8-1c1.4,0,2.4,0.4,3,1.1c0.6,0.8,0.9,1.8,0.9,3.1v7.9
			h0.2c0.7-3,1.8-5.8,3.3-8.4c1.5-2.5,3.2-3.8,5.3-3.8C223.6,33.7,224.3,34,224.7,34.5z"/>
	</g>
	<g class="st1">
		<path d="M241,60.9c0.2,0.2,0.3,0.4,0.3,0.7c0,0.4-0.1,0.7-0.2,0.9c-0.1,0.3-0.3,0.5-0.4,0.7c-0.2,0.2-0.3,0.3-0.3,0.4
			c0.2,0.3,0.4,0.6,0.9,0.9c0.4,0.3,0.6,0.6,0.8,0.8c0.2,0.2,0.4,0.5,0.5,0.9c0.1,0.4,0.2,0.9,0.2,1.5c0,0.7-0.2,1.3-0.5,1.9
			c-0.3,0.6-0.7,1-1.3,1.3c-0.5,0.3-1.1,0.5-1.8,0.5c-0.4,0-0.9-0.1-1.4-0.3c-0.5-0.2-0.9-0.4-1.1-0.8l1.3-1.7c0.3,0.4,0.6,0.7,1,1
			c0.3,0.3,0.7,0.4,1.1,0.4c0.6,0,1-0.2,1.4-0.6c0.4-0.4,0.6-0.8,0.6-1.3c0-0.4-0.2-0.8-0.5-1.2c-0.3-0.4-0.8-0.9-1.5-1.5
			c-0.1-0.1-0.2-0.2-0.4-0.4c-0.2-0.2-0.4-0.4-0.5-0.5l-1.4,2l-0.6-0.4l1.6-2.2c-0.2-0.5-0.3-1-0.3-1.5c0-0.6,0.1-1,0.4-1.4
			c0.2-0.4,0.6-0.6,1-0.6C240.5,60.7,240.8,60.8,241,60.9z M239.7,61.6c0,0.1-0.1,0.2-0.1,0.4c0,0.2,0,0.4,0.1,0.6
			c0.1,0.2,0.1,0.3,0.1,0.4c0.1-0.1,0.3-0.3,0.4-0.5c0.1-0.2,0.2-0.4,0.2-0.6c0-0.1,0-0.2-0.1-0.3c-0.1-0.1-0.2-0.1-0.3-0.1
			C239.9,61.5,239.8,61.5,239.7,61.6z"/>
		<path d="M247.4,61.5h2.7l-0.6,1.2h-2.1v6.9c0,0.2,0.1,0.4,0.2,0.5c0.1,0.1,0.3,0.2,0.5,0.2c0.3,0,0.7-0.3,1.1-0.8l0.3,0.3
			c-0.2,0.5-0.5,0.9-0.9,1.1c-0.3,0.2-0.7,0.4-1,0.4c-0.3,0.1-0.5,0.1-0.5,0c0,0,0,0,0.1,0c0,0,0.1,0,0.1,0c-1.1,0-1.7-0.7-1.7-2
			v-6.6h-1.5l0.6-1.2h0.9V57l1.8-0.7V61.5z"/>
		<path d="M254.1,61.6v8.6c0,1.2-0.3,2.3-0.8,3.3c-0.5,1-1.2,1.9-2.1,2.5c-0.9,0.6-1.8,0.9-2.7,0.9c-0.6,0-1.1-0.2-1.7-0.5l1.4-1.7
			c0.5,0.5,1.1,0.7,1.9,0.7c0.7,0,1.2-0.3,1.6-0.8c0.4-0.5,0.6-1.6,0.6-3.1v-9.2L254.1,61.6z M252,55.7l2.2-0.7l-0.7,4.5l-0.7,0.2
			L252,55.7z"/>
	</g>
</g>
</svg>
